<svg width="40" height="40" viewBox="0 0 40 40" fill="none" xmlns="http://www.w3.org/2000/svg">
<g clip-path="url(#clip0_34_78)">
<path d="M26.6667 6.66669H13.3334C9.65146 6.66669 6.66669 9.65146 6.66669 13.3334V26.6667C6.66669 30.3486 9.65146 33.3334 13.3334 33.3334H26.6667C30.3486 33.3334 33.3334 30.3486 33.3334 26.6667V13.3334C33.3334 9.65146 30.3486 6.66669 26.6667 6.66669Z" stroke="black" stroke-width="2" stroke-linecap="round" stroke-linejoin="round"/>
<path d="M20 25C22.7614 25 25 22.7614 25 20C25 17.2386 22.7614 15 20 15C17.2386 15 15 17.2386 15 20C15 22.7614 17.2386 25 20 25Z" stroke="black" stroke-width="2" stroke-linecap="round" stroke-linejoin="round"/>
<path d="M27.5 12.5V12.501" stroke="black" stroke-width="2" stroke-linecap="round" stroke-linejoin="round"/>
</g>
<defs>
<clipPath id="clip0_34_78">
<rect width="40" height="40" fill="white"/>
</clipPath>
</defs>
</svg>
