<svg width="40" height="40" viewBox="0 0 40 40" fill="none" xmlns="http://www.w3.org/2000/svg">
<g clip-path="url(#clip0_34_75)">
<path d="M23.3333 31.6667H16.6667C13.1305 31.6667 9.73907 30.2619 7.23859 27.7614C4.7381 25.2609 3.33334 21.8696 3.33334 18.3333V10H10V18.3333C10 20.1014 10.7024 21.7971 11.9526 23.0474C13.2029 24.2976 14.8986 25 16.6667 25V10H23.3333V17.5L23.3833 17.4933C25.21 17.2654 26.8906 16.3781 28.109 14.9982C29.3275 13.6183 30 11.8409 30 10H36.6667L36.0967 12.8517C35.7553 14.5585 35.0286 16.1648 33.972 17.548C32.9154 18.9313 31.5569 20.055 30 20.8333V20.8333C31.5139 21.3377 32.8644 22.2398 33.91 23.4452C34.9556 24.6507 35.6579 26.115 35.9433 27.685L36.6667 31.6667H30C30 29.8258 29.3275 28.0484 28.109 26.6685C26.8906 25.2886 25.21 24.4013 23.3833 24.1733V31.6733L23.3333 31.6667Z" stroke="black" stroke-width="2" stroke-linecap="round" stroke-linejoin="round"/>
</g>
<defs>
<clipPath id="clip0_34_75">
<rect width="40" height="40" fill="white"/>
</clipPath>
</defs>
</svg>
