<svg width="20" height="20" viewBox="0 0 20 20" fill="none" xmlns="http://www.w3.org/2000/svg">
<g clip-path="url(#clip0_34_102)">
<path d="M10 13.3334C11.841 13.3334 13.3333 11.841 13.3333 10C13.3333 8.15907 11.841 6.66669 10 6.66669C8.15906 6.66669 6.66667 8.15907 6.66667 10C6.66667 11.841 8.15906 13.3334 10 13.3334Z" stroke="black" stroke-linecap="round" stroke-linejoin="round"/>
<path d="M13.3333 9.99999V11.25C13.3333 11.8025 13.5528 12.3324 13.9435 12.7231C14.3342 13.1138 14.8641 13.3333 15.4167 13.3333C15.9692 13.3333 16.4991 13.1138 16.8898 12.7231C17.2805 12.3324 17.5 11.8025 17.5 11.25V9.99999C17.5021 8.38841 16.985 6.81903 16.0253 5.52432C15.0657 4.22961 13.7145 3.27845 12.172 2.81174C10.6295 2.34503 8.97764 2.3876 7.4612 2.93313C5.94476 3.47866 4.64437 4.49815 3.75267 5.84056C2.86097 7.18297 2.42539 8.7769 2.51046 10.3862C2.59553 11.9956 3.19671 13.5347 4.22496 14.7756C5.25321 16.0166 6.65383 16.8933 8.21933 17.2759C9.78483 17.6585 11.4319 17.5267 12.9167 16.9" stroke="black" stroke-linecap="round" stroke-linejoin="round"/>
</g>
<defs>
<clipPath id="clip0_34_102">
<rect width="20" height="20" fill="white"/>
</clipPath>
</defs>
</svg>
