<svg width="32" height="32" viewBox="0 0 32 32" fill="none" xmlns="http://www.w3.org/2000/svg">
<path d="M3.20001 2.9903C2.64773 2.9903 2.20001 3.43801 2.20001 3.9903C2.20001 4.54258 2.64773 4.9903 3.20001 4.9903V2.9903ZM6.25673 3.9903L7.22195 3.72888C7.1039 3.29298 6.70833 2.9903 6.25673 2.9903V3.9903ZM11.2239 22.3306L10.2587 22.592C10.3889 23.073 10.8535 23.3847 11.3479 23.3229L11.2239 22.3306ZM26.5075 20.4202L26.6315 21.4124C27.0562 21.3593 27.4 21.0419 27.4867 20.6228L26.5075 20.4202ZM28.8 9.33955L29.7793 9.54216C29.8402 9.24764 29.7653 8.94134 29.5754 8.70813C29.3855 8.47491 29.1008 8.33955 28.8 8.33955V9.33955ZM7.70548 9.33955L6.74026 9.60097L7.70548 9.33955ZM3.20001 4.9903H6.25673V2.9903H3.20001V4.9903ZM11.3479 23.3229L26.6315 21.4124L26.3834 19.4279L11.0999 21.3383L11.3479 23.3229ZM27.4867 20.6228L29.7793 9.54216L27.8207 9.13695L25.5282 20.2175L27.4867 20.6228ZM5.2915 4.25171L6.74026 9.60097L8.67071 9.07814L7.22195 3.72888L5.2915 4.25171ZM6.74026 9.60097L10.2587 22.592L12.1891 22.0692L8.67071 9.07814L6.74026 9.60097ZM28.8 8.33955H7.70548V10.3396H28.8V8.33955ZM15 27.3333C15 27.8856 14.5523 28.3333 14 28.3333V30.3333C15.6569 30.3333 17 28.9902 17 27.3333H15ZM14 28.3333C13.4477 28.3333 13 27.8856 13 27.3333H11C11 28.9902 12.3432 30.3333 14 30.3333V28.3333ZM13 27.3333C13 26.781 13.4477 26.3333 14 26.3333V24.3333C12.3432 24.3333 11 25.6765 11 27.3333H13ZM14 26.3333C14.5523 26.3333 15 26.781 15 27.3333H17C17 25.6765 15.6569 24.3333 14 24.3333V26.3333ZM25.6667 27.3333C25.6667 27.8856 25.219 28.3333 24.6667 28.3333V30.3333C26.3235 30.3333 27.6667 28.9902 27.6667 27.3333H25.6667ZM24.6667 28.3333C24.1144 28.3333 23.6667 27.8856 23.6667 27.3333H21.6667C21.6667 28.9902 23.0098 30.3333 24.6667 30.3333V28.3333ZM23.6667 27.3333C23.6667 26.781 24.1144 26.3333 24.6667 26.3333V24.3333C23.0098 24.3333 21.6667 25.6765 21.6667 27.3333H23.6667ZM24.6667 26.3333C25.219 26.3333 25.6667 26.781 25.6667 27.3333H27.6667C27.6667 25.6765 26.3235 24.3333 24.6667 24.3333V26.3333Z" fill="#52331E"/>
</svg>
