<svg width="253" height="82" viewBox="0 0 253 82" fill="none" xmlns="http://www.w3.org/2000/svg">
<path d="M19.1228 80.2712C19.1228 81.2903 27.736 81.1719 27.736 80.341C27.736 77.3801 27.7104 73.3322 27.736 66.0345C27.736 65.8733 19.0769 67.895 19.0673 67.7108C19.1194 71.322 19.1187 76.2256 19.1228 80.2712Z" fill="url(#paint0_linear_4_5)" stroke="#3F2716" stroke-width="2"/>
<path d="M29.2801 38.3213C33.0314 42.6532 30.3112 46.1791 31.4813 46.1792L40.3638 46.1798C41.5277 46.1799 40.6034 37.6828 35.298 33.392C35.2679 33.3677 29.2801 36.9664 29.2801 38.3214V38.3213Z" fill="url(#paint1_linear_4_5)" stroke="#3F2716" stroke-width="2"/>
<path d="M14.0056 36.1537C29.2681 46.1927 40.7741 30.3609 40.0739 19.6054C39.452 10.0532 32.3509 2.5057 23.2847 1.18576C14.2185 -0.134176 3.77266 5.68673 2.52315 15.2509C1.27365 24.8151 0.38897 38.989 1.52229 51.3247C2.65568 63.6603 15.73 67.6918 19.0673 67.7108C25.7317 67.7489 29.9057 66.132 33.8308 62.1302C36.1608 59.7547 37.8727 55.5792 37.9038 55.4434C37.9038 55.4434 27.1342 55.7192 27.377 55.6296C27.6178 55.5406 25.1893 59.7857 20.4978 59.2484C15.8063 58.7111 11.6743 55.8385 10.5459 50.9958C9.41745 46.153 10.071 37.9906 10.3546 31.7709C10.8851 20.1419 10.4001 22.53 11.1109 16.7123C11.7718 11.3034 17.2617 8.48025 21.1443 9.06992C25.1119 9.67251 31.6819 11.2387 32.5235 22.3334C32.7099 24.7894 31.6396 26.8097 30.2278 28.4531C28.5871 30.3629 26.4851 31.7637 25.358 32.7474C20.7708 31.3062 16.9533 31.9521 14.0056 36.1537Z" fill="url(#paint2_radial_4_5)" stroke="#3F2716" stroke-width="2"/>
<path d="M30.3499 28.2353C27.9869 30.6671 26.1759 32.5216 25.73 32.7296C24.6072 33.2536 21.6682 31.2145 17.9919 32.9334C14.1235 34.7422 13.2384 39.0281 8.8944 41.8998C5.94581 43.849 3.04289 41.707 3.03853 39.5563C3.03106 35.8972 5.38743 32.9714 8.16241 30.3862C11.0693 27.678 14.4138 25.1202 18.4102 24.6803C25.2759 23.9245 30.4842 28.3225 30.3499 28.2353Z" fill="url(#paint3_linear_4_5)" stroke="#3F2716" stroke-width="2"/>
<path d="M7.5635 30.8813C7.5635 30.8813 3.33583 26.7345 3.45683 24.4765C3.7121 19.7127 7.84591 20.3236 9.83555 22.3368C11.0811 23.5971 12.7571 26.7119 12.7571 26.7119C10.8612 27.978 9.14841 29.3033 7.5635 30.8813Z" fill="url(#paint4_linear_4_5)" stroke="#3F2716" stroke-width="2"/>
<path d="M18.7333 38.6568C18.8466 47.8834 18.9811 53.0489 19.0097 58.8971C19.0099 58.9236 23.913 60.7313 27.5857 55.7891C27.5857 55.7891 45.5153 54.9589 46.0221 56.2978C46.5545 57.7043 46.6922 72.4005 46.6976 79.9158C46.6976 80.9936 56.3365 81.0314 56.2948 79.6065C55.7396 60.6141 55.8043 46.013 55.4657 24.4241C55.447 23.2363 45.7851 23.0117 45.8072 24.8841C45.8946 32.2902 46.1363 43.1962 45.7486 44.6626C45.4438 45.8151 28.2182 46.3965 28.0891 44.9781C27.9601 43.5596 27.9782 38.7142 27.9782 38.7142C23.5189 40.4972 18.7333 38.6568 18.7333 38.6568Z" fill="url(#paint5_linear_4_5)" stroke="#3F2716" stroke-width="2"/>
<path d="M71.3383 79.2392C70.6557 79.2392 70.011 79.0175 69.4043 78.5741C68.8354 78.1306 68.551 77.5025 68.551 76.6896V59.7292C68.551 58.9163 68.7975 58.3251 69.2905 57.9556C69.8214 57.5491 70.4092 57.3459 71.0539 57.3459H76.5715C78.3538 57.3459 79.8707 57.8078 81.1221 58.7315C82.3736 59.6553 82.9993 60.9301 82.9993 62.5559C82.9993 63.5905 82.7907 64.5513 82.3736 65.4381C81.9564 66.288 81.3687 66.8976 80.6102 67.2671C81.71 67.5258 82.6201 68.1909 83.3406 69.2625C84.099 70.2971 84.4783 71.4241 84.4783 72.6435C84.4783 74.6388 83.8146 76.2462 82.4874 77.4655C81.198 78.648 79.6053 79.2392 77.7092 79.2392H71.3383ZM73.1017 76.9113H76.8559C77.6144 76.9113 78.3728 76.782 79.1312 76.5233C79.8897 76.2646 80.5154 75.8212 81.0084 75.1931C81.5014 74.528 81.7479 73.6411 81.7479 72.5326C81.7479 71.1654 81.2739 70.1678 80.3258 69.5396C79.3778 68.9115 78.297 68.5974 77.0835 68.5974H73.1017C71.7744 68.5974 71.1108 69.244 71.1108 70.5373V74.9714C71.1108 76.2646 71.7744 76.9113 73.1017 76.9113ZM73.1017 66.602H76.9128C77.9746 66.602 78.8089 66.2325 79.4157 65.4935C80.0224 64.7545 80.3258 63.8677 80.3258 62.8331C80.3258 61.6506 79.9276 60.8192 79.1312 60.3389C78.3728 59.8216 77.4627 59.5629 76.4009 59.5629H73.1017C71.7744 59.5629 71.1108 60.2096 71.1108 61.5028V64.6621C71.1108 65.9554 71.7744 66.602 73.1017 66.602Z" fill="#52331E"/>
<path d="M95.9686 79.7934C93.6175 79.7934 91.6834 79.0174 90.1666 77.4655C88.6497 75.8766 87.8912 73.8443 87.8912 71.3686C87.8912 68.9668 88.6497 67.0085 90.1666 65.4935C91.6834 63.9416 93.6175 63.1656 95.9686 63.1656C98.3956 63.1656 100.349 63.997 101.828 65.6598V64.6621C101.828 64.2556 101.96 63.96 102.226 63.7753C102.491 63.5536 102.776 63.4427 103.079 63.4427C103.42 63.4427 103.724 63.5536 103.989 63.7753C104.255 63.96 104.387 64.2556 104.387 64.6621V78.5186C104.387 78.8881 104.255 79.1837 103.989 79.4054C103.762 79.6641 103.458 79.7934 103.079 79.7934C102.7 79.7934 102.396 79.6641 102.169 79.4054C101.941 79.1837 101.828 78.8881 101.828 78.5186V77.1884C101.145 78.0013 100.292 78.6479 99.2678 79.1283C98.2819 79.5717 97.1821 79.7934 95.9686 79.7934ZM95.9686 77.5209C97.751 77.5209 99.173 77.0036 100.235 75.969C101.297 74.9344 101.828 73.4009 101.828 71.3686C101.828 69.4102 101.297 67.9322 100.235 66.9346C99.173 65.9369 97.751 65.4381 95.9686 65.4381C94.338 65.4381 93.0107 66.0108 91.9868 67.1563C91.0008 68.3017 90.5079 69.7059 90.5079 71.3686C90.5079 73.1053 91.0008 74.5649 91.9868 75.7473C93.0107 76.9297 94.338 77.5209 95.9686 77.5209Z" fill="#52331E"/>
<path d="M110.531 79.7934C110.151 79.7934 109.829 79.6641 109.564 79.4054C109.336 79.1837 109.222 78.8881 109.222 78.5186V56.6253C109.222 56.2189 109.355 55.9233 109.621 55.7385C109.886 55.5168 110.189 55.4059 110.531 55.4059C110.834 55.4059 111.119 55.5168 111.384 55.7385C111.649 55.9233 111.782 56.2189 111.782 56.6253V67.7659C111.782 68.3941 111.972 68.7082 112.351 68.7082C112.541 68.7082 112.73 68.6343 112.92 68.4865L120.542 63.3319C120.77 63.221 120.997 63.1656 121.225 63.1656C121.566 63.1656 121.85 63.2949 122.078 63.5536C122.343 63.7753 122.476 64.0709 122.476 64.4404C122.476 64.8838 122.249 65.2533 121.794 65.5489L115.366 69.6504C115.1 69.8352 114.968 70.0384 114.968 70.2601C114.968 70.4818 115.1 70.722 115.366 70.9807L122.249 77.4655C122.4 77.5764 122.495 77.7057 122.533 77.8535C122.571 78.0013 122.59 78.1491 122.59 78.2969C122.59 78.6664 122.457 78.9805 122.192 79.2391C121.926 79.4978 121.585 79.6271 121.168 79.6271C120.94 79.6271 120.694 79.5348 120.428 79.35L112.863 71.8675C112.597 71.6088 112.37 71.4795 112.18 71.4795C111.915 71.4795 111.782 71.7936 111.782 72.4217V78.5186C111.782 78.8881 111.668 79.1837 111.441 79.4054C111.213 79.6641 110.91 79.7934 110.531 79.7934Z" fill="#52331E"/>
<path d="M134.194 79.7934C131.539 79.7934 129.416 79.0359 127.823 77.5209C126.23 75.969 125.434 73.8443 125.434 71.1469C125.434 69.6689 125.775 68.3387 126.458 67.1563C127.141 65.9369 128.089 64.9762 129.302 64.2741C130.553 63.5351 132.013 63.1656 133.682 63.1656C135.426 63.1656 136.867 63.5351 138.005 64.2741C139.143 64.9762 139.977 65.863 140.508 66.9346C141.077 67.9692 141.361 69.0038 141.361 70.0384C141.361 70.6666 141.21 71.1839 140.906 71.5904C140.641 71.9968 140.243 72.2 139.712 72.2H128.79C128.563 72.2 128.392 72.2185 128.278 72.2555C128.202 72.2924 128.164 72.4217 128.164 72.6434C128.164 73.2716 128.373 73.9552 128.79 74.6942C129.207 75.4332 129.795 76.0798 130.553 76.6341C131.35 77.1514 132.26 77.447 133.284 77.5209C134.384 77.5948 135.464 77.484 136.526 77.1884C137.588 76.8928 138.536 76.4309 139.37 75.8027C139.56 75.6549 139.769 75.581 139.996 75.581C140.262 75.581 140.508 75.6919 140.736 75.9136C141.001 76.1353 141.134 76.4124 141.134 76.745C141.134 77.0775 140.963 77.4101 140.622 77.7426C139.712 78.4447 138.688 78.962 137.55 79.2946C136.412 79.6271 135.294 79.7934 134.194 79.7934ZM137.778 70.2601C138.081 70.2601 138.309 70.1493 138.46 69.9276C138.612 69.6689 138.65 69.3548 138.574 68.9853C138.46 68.0246 137.948 67.1747 137.038 66.4357C136.128 65.6598 135.009 65.2718 133.682 65.2718C132.696 65.2718 131.786 65.512 130.952 65.9923C130.155 66.4357 129.511 67.0085 129.018 67.7105C128.525 68.4126 128.278 69.1516 128.278 69.9276C128.278 70.1123 128.449 70.2047 128.79 70.2047L137.778 70.2601Z" fill="#52331E"/>
<path d="M158.597 79.7934C158.218 79.7934 157.895 79.6641 157.63 79.4054C157.402 79.1468 157.288 78.8512 157.288 78.5186V58.0664C157.288 57.66 157.402 57.3459 157.63 57.1242C157.895 56.9025 158.218 56.7916 158.597 56.7916C159.014 56.7916 159.355 56.9025 159.621 57.1242C159.886 57.3459 160.019 57.66 160.019 58.0664V64.4958C160.019 65.161 160.152 65.6598 160.417 65.9924C160.682 66.288 161.157 66.4358 161.839 66.4358H171.509C172.192 66.4358 172.666 66.288 172.931 65.9924C173.197 65.6598 173.329 65.161 173.329 64.4958V58.0664C173.329 57.66 173.443 57.3459 173.671 57.1242C173.936 56.9025 174.259 56.7916 174.638 56.7916C175.055 56.7916 175.396 56.9025 175.662 57.1242C175.927 57.3459 176.06 57.66 176.06 58.0664V78.5186C176.06 78.8512 175.927 79.1468 175.662 79.4054C175.396 79.6641 175.055 79.7934 174.638 79.7934C174.259 79.7934 173.936 79.6641 173.671 79.4054C173.443 79.1468 173.329 78.8512 173.329 78.5186V70.7036C173.329 70.0385 173.197 69.5581 172.931 69.2625C172.666 68.9299 172.192 68.7637 171.509 68.7637H161.839C161.157 68.7637 160.682 68.9299 160.417 69.2625C160.152 69.5581 160.019 70.0385 160.019 70.7036V78.5186C160.019 78.8512 159.886 79.1468 159.621 79.4054C159.355 79.6641 159.014 79.7934 158.597 79.7934Z" fill="#52331E"/>
<path d="M188.972 79.7934C187.38 79.7934 185.958 79.4239 184.706 78.6849C183.455 77.9459 182.45 76.9482 181.691 75.6919C180.971 74.3986 180.611 72.9575 180.611 71.3686C180.611 69.7798 180.971 68.3756 181.691 67.1563C182.45 65.9369 183.455 64.9762 184.706 64.2741C185.958 63.5351 187.38 63.1656 188.972 63.1656C190.565 63.1656 191.987 63.5351 193.239 64.2741C194.528 64.9762 195.533 65.9369 196.253 67.1563C197.012 68.3756 197.391 69.7798 197.391 71.3686C197.391 72.9575 197.012 74.3986 196.253 75.6919C195.533 76.9482 194.528 77.9459 193.239 78.6849C191.987 79.4239 190.565 79.7934 188.972 79.7934ZM188.972 77.5209C190.755 77.5209 192.177 76.9297 193.239 75.7473C194.3 74.5649 194.831 73.1053 194.831 71.3686C194.831 69.7059 194.3 68.3017 193.239 67.1563C192.177 66.0108 190.755 65.4381 188.972 65.4381C187.228 65.4381 185.825 66.0108 184.763 67.1563C183.739 68.3017 183.227 69.7059 183.227 71.3686C183.227 73.1053 183.739 74.5649 184.763 75.7473C185.825 76.9297 187.228 77.5209 188.972 77.5209Z" fill="#52331E"/>
<path d="M213.887 64.4404C213.887 64.0339 214.02 63.7199 214.285 63.4981C214.551 63.2764 214.854 63.1656 215.195 63.1656C215.499 63.1656 215.783 63.2764 216.049 63.4981C216.314 63.7199 216.447 64.0339 216.447 64.4404V72.2555C216.447 74.5464 215.764 76.3755 214.399 77.7426C213.034 79.1098 211.176 79.7934 208.824 79.7934C207.08 79.7934 205.658 79.4424 204.558 78.7403C203.459 78.0382 202.643 77.1145 202.112 75.969C201.619 74.7866 201.373 73.5303 201.373 72.2V64.4404C201.373 64.0339 201.506 63.7199 201.771 63.4981C202.036 63.2764 202.34 63.1656 202.681 63.1656C202.984 63.1656 203.269 63.2764 203.534 63.4981C203.8 63.7199 203.933 64.0339 203.933 64.4404V72.4217C203.933 74.2323 204.426 75.5256 205.411 76.3016C206.397 77.0775 207.535 77.4655 208.824 77.4655C210.038 77.4655 211.176 77.0775 212.237 76.3016C213.337 75.5256 213.887 74.2693 213.887 72.5326V64.4404Z" fill="#52331E"/>
<path d="M226.799 79.7934C224.221 79.7934 222.135 79.0729 220.542 77.6318C220.277 77.3731 220.144 77.0775 220.144 76.745C220.144 76.3755 220.296 76.0799 220.599 75.8581C220.903 75.6364 221.149 75.5256 221.339 75.5256C221.642 75.5256 222.021 75.7103 222.476 76.0798C223.045 76.5602 223.69 76.9297 224.41 77.1884C225.169 77.447 226.022 77.5764 226.97 77.5764C228.297 77.5764 229.283 77.3362 229.928 76.8558C230.611 76.3755 230.952 75.7288 230.952 74.9159C230.952 74.066 230.592 73.4564 229.871 73.0868C229.151 72.6804 228.127 72.4033 226.799 72.2555C226.079 72.1816 225.207 72.0522 224.183 71.8675C223.197 71.6827 222.325 71.3132 221.566 70.759C220.808 70.1678 220.429 69.2809 220.429 68.0985C220.429 66.5835 220.997 65.3826 222.135 64.4958C223.273 63.609 224.865 63.1656 226.913 63.1656C228.089 63.1656 229.188 63.3134 230.212 63.609C231.236 63.8676 231.976 64.2002 232.431 64.6067C232.734 64.8284 232.886 65.124 232.886 65.4935C232.886 65.7521 232.772 66.0293 232.545 66.3249C232.317 66.5835 232.052 66.7129 231.748 66.7129C231.597 66.7129 231.445 66.6759 231.293 66.602C231.141 66.5281 230.99 66.4542 230.838 66.3803C230.156 66.0108 229.53 65.7521 228.961 65.6043C228.43 65.4565 227.785 65.3826 227.027 65.3826C225.813 65.3826 224.827 65.6043 224.069 66.0477C223.349 66.4542 222.988 67.0824 222.988 67.9322C222.988 68.5234 223.235 68.9668 223.728 69.2625C224.259 69.5211 225.283 69.7428 226.799 69.9276C227.33 70.0015 227.975 70.1123 228.733 70.2601C229.492 70.4079 230.231 70.6481 230.952 70.9807C231.672 71.2763 232.279 71.7382 232.772 72.3663C233.265 72.9575 233.512 73.752 233.512 74.7496C233.512 76.2646 232.924 77.484 231.748 78.4077C230.573 79.3315 228.923 79.7934 226.799 79.7934Z" fill="#52331E"/>
<path d="M245.685 79.7934C243.03 79.7934 240.906 79.0359 239.314 77.5209C237.721 75.969 236.925 73.8443 236.925 71.1469C236.925 69.6689 237.266 68.3387 237.949 67.1563C238.631 65.9369 239.579 64.9762 240.793 64.2741C242.044 63.5351 243.504 63.1656 245.173 63.1656C246.917 63.1656 248.358 63.5351 249.496 64.2741C250.633 64.9762 251.468 65.863 251.999 66.9346C252.567 67.9692 252.852 69.0038 252.852 70.0384C252.852 70.6666 252.7 71.1839 252.397 71.5904C252.131 71.9968 251.733 72.2 251.202 72.2H240.281C240.053 72.2 239.883 72.2185 239.769 72.2555C239.693 72.2924 239.655 72.4217 239.655 72.6434C239.655 73.2716 239.864 73.9552 240.281 74.6942C240.698 75.4332 241.286 76.0798 242.044 76.6341C242.84 77.1514 243.751 77.447 244.774 77.5209C245.874 77.5948 246.955 77.484 248.017 77.1884C249.079 76.8928 250.027 76.4309 250.861 75.8027C251.051 75.6549 251.259 75.581 251.487 75.581C251.752 75.581 251.999 75.6919 252.226 75.9136C252.492 76.1353 252.624 76.4124 252.624 76.745C252.624 77.0775 252.454 77.4101 252.112 77.7426C251.202 78.4447 250.178 78.962 249.041 79.2946C247.903 79.6271 246.784 79.7934 245.685 79.7934ZM249.268 70.2601C249.572 70.2601 249.799 70.1493 249.951 69.9276C250.103 69.6689 250.14 69.3548 250.065 68.9853C249.951 68.0246 249.439 67.1747 248.529 66.4357C247.619 65.6598 246.5 65.2718 245.173 65.2718C244.187 65.2718 243.277 65.512 242.442 65.9923C241.646 66.4357 241.001 67.0085 240.508 67.7105C240.015 68.4126 239.769 69.1516 239.769 69.9276C239.769 70.1123 239.939 70.2047 240.281 70.2047L249.268 70.2601Z" fill="#52331E"/>
<defs>
<linearGradient id="paint0_linear_4_5" x1="56.138" y1="73.7019" x2="19.1132" y2="73.867" gradientUnits="userSpaceOnUse">
<stop stop-color="#985929"/>
<stop offset="1" stop-color="#50321D"/>
</linearGradient>
<linearGradient id="paint1_linear_4_5" x1="35.9226" y1="46.1795" x2="32.593" y2="36.1125" gradientUnits="userSpaceOnUse">
<stop stop-color="#B16413"/>
<stop offset="1" stop-color="#EF7D05"/>
</linearGradient>
<radialGradient id="paint2_radial_4_5" cx="0" cy="0" r="1" gradientUnits="userSpaceOnUse" gradientTransform="translate(8.89443 41.8998) rotate(-22.8691) scale(27.2941 60.8081)">
<stop stop-color="#FD9222"/>
<stop offset="0.348311" stop-color="#FD9222"/>
<stop offset="0.762511" stop-color="#D47614"/>
<stop offset="1" stop-color="#934F05"/>
</radialGradient>
<linearGradient id="paint3_linear_4_5" x1="3.03853" y1="39.5563" x2="28.4994" y2="29.5914" gradientUnits="userSpaceOnUse">
<stop stop-color="#FA9933"/>
<stop offset="1" stop-color="#FF8300"/>
</linearGradient>
<linearGradient id="paint4_linear_4_5" x1="4.65647" y1="21.4572" x2="10.2441" y2="28.5378" gradientUnits="userSpaceOnUse">
<stop stop-color="#703C08"/>
<stop offset="1" stop-color="#CA751A"/>
</linearGradient>
<linearGradient id="paint5_linear_4_5" x1="18.9128" y1="50.6365" x2="55.7714" y2="50.3961" gradientUnits="userSpaceOnUse">
<stop offset="0.164232" stop-color="#50321D"/>
<stop offset="1" stop-color="#985929"/>
</linearGradient>
</defs>
</svg>
